<?xml version="1.0" standalone="no"?>
<!DOCTYPE svg PUBLIC "-//W3C//DTD SVG 20010904//EN"
 "http://www.w3.org/TR/2001/REC-SVG-20010904/DTD/svg10.dtd">
<svg version="1.0" xmlns="http://www.w3.org/2000/svg"
 width="116.000000pt" height="116.000000pt" viewBox="0 0 116.000000 116.000000"
 preserveAspectRatio="xMidYMid meet">
<metadata>
Created by potrace 1.11, written by Peter Selinger 2001-2013
</metadata>
<g transform="translate(0.000000,116.000000) scale(0.100000,-0.100000)"
fill="#000000" stroke="none">
<path d="M405 1144 c-87 -15 -119 -21 -122 -25 -4 -2 -14 -5 -50 -14 -18 -4
-37 -12 -41 -19 -9 -10 -50 -140 -58 -179 -2 -10 -5 -26 -8 -35 -6 -17 -9 -39
-25 -152 -10 -68 -7 -249 4 -335 10 -68 60 -267 77 -301 11 -23 25 -31 81 -45
109 -29 125 -30 292 -34 144 -3 216 3 335 29 8 1 32 6 52 10 26 6 39 15 47 34
26 70 45 136 66 237 21 97 23 131 20 290 -3 188 -10 230 -62 398 -27 85 -33
93 -78 103 -5 1 -37 9 -70 18 -86 22 -125 27 -260 31 -73 2 -151 -2 -200 -11z
m469 -223 c3 -5 15 -7 25 -4 10 3 22 0 26 -7 9 -15 -15 -42 -31 -36 -7 3 -16
1 -19 -5 -4 -5 -11 -6 -17 -3 -6 4 -13 2 -17 -4 -4 -6 -17 -9 -29 -6 -18 5
-20 10 -11 25 5 10 16 19 24 19 8 0 15 7 15 15 0 16 25 21 34 6z m59 -95 c40
-9 34 -44 -7 -37 -4 1 -14 -3 -20 -9 -7 -5 -16 -7 -19 -3 -4 3 -12 1 -19 -4
-7 -6 -21 -7 -32 -4 -16 6 -15 11 15 43 19 21 38 33 44 29 5 -5 22 -11 38 -15z
m12 -90 c62 -22 58 -42 -10 -49 -17 -2 -36 -6 -42 -10 -10 -6 -43 0 -43 8 0
15 15 35 26 35 8 0 17 7 20 15 4 8 7 15 8 15 0 0 19 -7 41 -14z m13 -102 c39
-19 46 -29 29 -41 -13 -11 -112 -11 -123 0 -9 9 15 37 32 37 8 0 14 5 14 10 0
14 12 13 48 -6z m-14 -100 c3 -8 10 -13 15 -9 6 3 15 -3 21 -14 5 -11 6 -22 2
-25 -13 -8 -116 4 -126 14 -12 12 12 40 29 34 7 -3 16 -1 20 5 9 16 32 13 39
-5z m-1 -106 c25 -28 26 -33 12 -41 -10 -5 -21 -5 -28 1 -7 5 -19 10 -27 10
-38 2 -70 17 -70 32 0 8 48 27 75 29 6 1 23 -13 38 -31z"/>
</g>
</svg>
